<svg xmlns="http://www.w3.org/2000/svg" viewBox="0 0 1200 750" role="img">
<defs><linearGradient id="sky" x2="0" y2="1"><stop stop-color="#a7c1c7"/><stop offset="1" stop-color="#f3d7aa"/></linearGradient></defs>
<path fill="url(#sky)" d="M0 0h1200v750H0z"/>
<circle cx="980" cy="145" r="72" fill="#fff4ca" opacity=".72"/>
<path d="M65 200q65-45 130 0m165-75q75-40 150 0m310 95q65-35 130 0" fill="none" stroke="#fff" stroke-width="22" stroke-linecap="round" opacity=".35"/>
<path d="M240 620V410h720v210Z" fill="#c7ad8b"/><path d="M335 410q265-310 530 0Z" fill="#a99588"/><path d="M490 260q110-140 220 0" fill="#a99588"/><path d="M145 620V255h55v365m800 0V255h55v365" fill="#b89d83"/><path d="M172 255V105m855 150V105" stroke="#b89d83" stroke-width="15"/><path d="M125 255h95m760 0h95" stroke="#d6bd9a" stroke-width="18"/>
<path d="M0 680q300-30 600 0t600 0v70H0Z" fill="#263c54" opacity=".16"/>
</svg>